<?xml version="1.0" standalone="no"?><!DOCTYPE svg PUBLIC "-//W3C//DTD SVG 1.1//EN" "http://www.w3.org/Graphics/SVG/1.1/DTD/svg11.dtd"><svg t="1726623993901" class="icon" viewBox="0 0 1024 1024" version="1.1" xmlns="http://www.w3.org/2000/svg" p-id="5369" xmlns:xlink="http://www.w3.org/1999/xlink" width="16" height="16"><path d="M532.053333 41.898667h3.84c52.736 0 95.573333 45.397333 96 97.536v3.2l-0.128 9.173333-0.128 12.416s13.866667-22.741333 39.850667-35.882667c26.026667-13.184 57.514667-7.509333 57.514667-7.509333l3.712 0.682667h0.085333c52.138667 9.685333 85.205333 60.032 78.08 111.488l-0.042667 0.64-0.682666 3.712-1.493334 8.661333a9480.448 9480.448 0 0 0-8.533333 49.749333 93.226667 93.226667 0 0 1 88.490667-11.818666l4.224 1.578666c49.066667 18.773333 73.386667 73.472 58.24 122.88l-115.754667 377.002667-0.512 1.28c-1.365333 3.413333-2.688 6.997333-4.096 10.624-6.698667 17.450667-14.122667 36.821333-26.026667 55.637333-15.061333 23.936-36.565333 46.336-71.381333 70.698667-21.333333 14.933333-50.176 25.173333-80.64 31.488-31.061333 6.442667-66.304 9.386667-102.101333 8.021333-70.272-2.645333-149.461333-22.101333-202.410667-71.552-34.56-32.256-82.005333-90.922667-108.117333-130.986666l0.426666 0.554666-0.853333-1.194666 0.426667 0.597333-134.741334-189.226667c-30.72-43.136-24.362667-103.936 15.530667-139.093333a96.853333 96.853333 0 0 1 137.813333 9.301333l0.938667 1.066667 0.853333 1.152 0.256 0.341333 0.768 1.066667 2.986667 4.096a2233.898667 2233.898667 0 0 0 33.834667 44.629333 5250.133333 5250.133333 0 0 0-12.586667-85.418666 10994.005333 10994.005333 0 0 0-25.941333-159.488l-2.56-14.890667-0.085334-0.554667-0.085333-0.554666c-7.04-51.456 25.941333-101.802667 78.165333-111.488l3.712-0.682667h0.042667c39.68-7.296 76.8 11.306667 97.024 42.88l0.042667-12.288v-13.482667c1.578667-52.053333 42.666667-96.042667 96.042666-96.042666z m210.901334 183.594666l0.426666-2.346666c2.133333-17.749333-9.514667-31.957333-23.04-34.474667l-3.712-0.682667c-13.056-2.432-27.818667 6.144-31.573333 22.997334l-0.213333 1.493333-1.024 7.253333-3.84 25.984c-3.242667 21.418667-7.68 50.048-12.544 78.677334a1550.933333 1550.933333 0 0 1-15.232 79.616c-2.474667 10.837333-5.12 21.077333-7.850667 29.013333-1.28 3.669333-3.2 8.661333-5.973333 13.269333a41.130667 41.130667 0 0 1-8.32 10.026667 35.712 35.712 0 0 1-28.16 8.448 35.84 35.84 0 0 1-25.642667-16.896 45.312 45.312 0 0 1-4.693333-10.496 97.92 97.92 0 0 1-2.986667-14.805333 455.338667 455.338667 0 0 1-2.986667-36.224c-1.450667-28.202667-2.133333-65.28-2.432-101.802667a7024.682667 7024.682667 0 0 1 0.341334-133.546667l0.128-9.258666v-2.389334c-0.853333-17.749333-14.378667-29.184-27.733334-29.184h-3.84c-13.44 0-27.008 11.52-27.733333 29.354667v12.032a13317.461333 13317.461333 0 0 1-1.109333 133.930667 3665.408 3665.408 0 0 1-2.602667 101.376c-0.64 13.866667-1.365333 26.069333-2.346667 35.114666-0.426667 4.309333-1.024 9.045333-1.962666 13.226667-0.426667 1.749333-1.28 5.418667-3.114667 9.301333a34.688 34.688 0 0 1-59.818667 6.485334c-2.602667-3.456-4.224-6.826667-4.992-8.533334a92.458667 92.458667 0 0 1-4.096-11.52 424.234667 424.234667 0 0 1-6.912-27.989333 2329.130667 2329.130667 0 0 1-15.274666-78.890667 6496.597333 6496.597333 0 0 1-17.706667-103.765333l-1.152-7.253333-0.298667-1.792c-3.669333-17.066667-18.474667-25.685333-31.573333-23.253334h-0.085333l-3.712 0.682667c-13.525333 2.517333-25.173333 16.725333-22.954667 34.56l2.432 14.336a12443.008 12443.008 0 0 1 26.112 160.469333c6.826667 44.16 13.397333 89.002667 17.578667 123.648 2.090667 17.194667 3.626667 32.426667 4.309333 44.032 0.341333 5.674667 0.554667 11.306667 0.298667 16.213334a59.306667 59.306667 0 0 1-1.024 9.088l-0.042667 0.170666c-0.426667 1.877333-2.261333 11.264-10.069333 19.072-13.781333 13.824-30.72 10.837333-36.992 8.917334a50.858667 50.858667 0 0 1-14.677334-7.509334 140.714667 140.714667 0 0 1-18.304-16.512 694.784 694.784 0 0 1-38.4-44.885333A1958.144 1958.144 0 0 1 209.493333 489.813333l-3.157333-4.266666-0.128-0.213334a28.544 28.544 0 0 0-40.106667-2.005333l-0.128 0.085333a36.949333 36.949333 0 0 0-5.12 48.341334l135.594667 190.421333 0.426667 0.64c23.552 36.266667 67.882667 90.88 97.834666 118.869333 35.84 33.450667 95.744 50.901333 158.378667 53.248a361.813333 361.813333 0 0 0 85.632-6.656c25.813333-5.333333 44.672-13.056 55.424-20.565333 29.226667-20.48 43.605333-36.608 52.778667-51.2 7.978667-12.629333 12.629333-24.661333 19.2-41.557333l4.693333-12.117334 114.944-374.485333c5.248-17.152-3.84-33.877333-17.322667-39.04l-4.181333-1.578667c-12.501333-4.778667-27.861333 0.896-34.218667 16.213334l-0.170666 0.512-1.578667 4.949333a2836.053333 2836.053333 0 0 1-23.637333 71.168c-6.741333 19.328-14.08 39.253333-20.48 54.528a195.584 195.584 0 0 1-10.026667 20.821333c-1.578667 2.730667-4.096 6.826667-7.509333 10.538667a40.021333 40.021333 0 0 1-9.173334 7.509333 35.328 35.328 0 0 1-51.114666-17.664 43.733333 43.733333 0 0 1-2.602667-11.093333c-0.554667-4.736-0.469333-9.813333-0.298667-14.08 0.341333-9.088 1.493333-21.034667 3.072-34.218667 3.157333-26.709333 8.32-61.738667 13.781334-96.298666a7669.589333 7669.589333 0 0 1 21.077333-126.336l1.536-8.789334z m-536.746667 259.84l-0.682667-0.981333-0.298666-0.384s2.346667 1.706667 1.749333 2.218667a24.618667 24.618667 0 0 0-0.725333-0.853334z m564.650667 277.504l0.469333-1.28-0.853333 2.56 0.384-1.28z m59.221333-398.933333l-0.341333 0.853333 0.725333-2.133333-0.426667 1.28z" fill="#333333" p-id="5370"></path></svg>