<?xml version="1.0" standalone="no"?><!DOCTYPE svg PUBLIC "-//W3C//DTD SVG 1.1//EN" "http://www.w3.org/Graphics/SVG/1.1/DTD/svg11.dtd"><svg t="1726624007199" class="icon" viewBox="0 0 1024 1024" version="1.1" xmlns="http://www.w3.org/2000/svg" p-id="5840" xmlns:xlink="http://www.w3.org/1999/xlink" width="16" height="16"><path d="M346.282667 195.413333c32.256-12.8 65.536-21.077333 93.952-23.765333l-8.106667-84.949333c-37.546667 3.584-78.677333 14.08-117.333333 29.354666l31.488 79.36zM491.904 175.36a20.522667 20.522667 0 0 1 3.498667 1.706667v0.085333c0 19.242667-2.56 36.181333-5.546667 53.205333l84.010667 14.848c3.2-18.261333 6.869333-41.130667 6.869333-68.053333 0-18.645333-5.418667-36.266667-16.64-51.157333a93.568 93.568 0 0 0-39.936-29.653334l-32.256 78.976zM253.013333 252.373333c9.514667-9.472 21.504-18.901333 35.541334-27.861333L242.688 152.533333a294.4 294.4 0 0 0-50.048 39.552 300.8 300.8 0 0 0-49.706667 67.84l74.794667 41.088c10.965333-19.968 23.04-36.309333 35.285333-48.64zM497.621333 339.413333c13.866667 22.656 36.352 39.338667 64.512 53.418667 21.162667 10.581333 44.074667 14.506667 65.194667 15.786667l5.12-85.12c-14.848-0.938667-25.173333-3.498667-32.170667-6.997334-21.461333-10.709333-27.861333-18.346667-29.866666-21.589333l-72.789334 44.501333zM700.842667 405.973333l11.392-1.066666c33.536-3.2 58.752-5.546667 78.122666-2.432l13.738667-84.224c-31.146667-5.077333-68.48-1.408-99.370667 1.621333l-11.776 1.152 7.893334 84.949333zM171.904 511.146667a421.376 421.376 0 0 1 14.208-130.005334l-82.346667-22.186666a506.666667 506.666667 0 0 0-17.066666 156.586666l85.205333-4.394666zM808.789333 412.842667c1.706667 4.565333 3.584 13.909333 2.005334 30.933333l84.992 7.68c2.261333-24.917333 0.597333-48.170667-7.125334-68.650667l-79.872 30.037334zM213.333333 649.386667a228.736 228.736 0 0 1-26.368-54.826667l-80.981333 26.88c8.789333 26.410667 20.693333 51.797333 36.309333 75.221333 11.818667 17.706667 23.722667 34.133333 35.84 49.322667l66.688-53.290667c-10.410667-13.013333-20.906667-27.434667-31.488-43.306666zM375.893333 793.173333a254.464 254.464 0 0 1-83.925333-50.304l-56.405333 64.042667a339.712 339.712 0 0 0 111.616 66.602667l28.672-80.341334zM493.056 810.666667c-18.645333 0-35.968-0.896-52.266667-2.816L430.933333 892.586667c20.053333 2.346667 40.746667 3.413333 62.165334 3.413333v-85.333333zM597.333333 768h256v-85.333333h-256v85.333333z" fill="#333333" p-id="5841"></path></svg>